<svg width="24" height="24" viewBox="0 0 24 24" fill="none" xmlns="http://www.w3.org/2000/svg">
<path fill-rule="evenodd" clip-rule="evenodd" d="M9.10748 5.44824C9.7055 3.69827 12.1231 3.64507 12.8321 5.28906L12.8917 5.44922L13.6993 7.80859C13.8842 8.34982 14.1826 8.84581 14.5753 9.26172C14.9678 9.67748 15.4452 10.004 15.9747 10.2197L16.1924 10.3008L18.5518 11.1074C20.3017 11.7055 20.3549 14.123 18.712 14.832L18.5518 14.8916L16.1924 15.6992C15.6511 15.884 15.1554 16.1827 14.7393 16.5752C14.3233 16.9677 13.9962 17.445 13.7803 17.9746L13.6993 18.1914L12.8926 20.5518C12.2946 22.3017 9.87702 22.3549 9.169 20.7119L9.10748 20.5518L8.30084 18.1924C8.11605 17.6511 7.8174 17.1553 7.42486 16.7393C7.03236 16.3233 6.55503 15.9962 6.02545 15.7803L5.80865 15.6992L3.44928 14.8926C1.69828 14.2946 1.64512 11.8769 3.28912 11.1689L3.44928 11.1074L5.80865 10.3008C6.34986 10.1158 6.84589 9.81741 7.26178 9.4248C7.67753 9.0323 8.00401 8.55487 8.21979 8.02539L8.30084 7.80859L9.10748 5.44824ZM10.1944 8.4541C9.91283 9.27928 9.45422 10.0329 8.85162 10.6631C8.24897 11.2932 7.51597 11.7845 6.70416 12.1025L6.45416 12.1943L4.09381 13L6.45416 13.8057C7.27934 14.0872 8.03302 14.5458 8.66315 15.1484C9.29325 15.7511 9.78453 16.4841 10.1026 17.2959L10.1944 17.5459L11.0001 19.9062L11.8057 17.5459C12.0873 16.7207 12.5459 15.9671 13.1485 15.3369C13.7512 14.7068 14.4841 14.2155 15.296 13.8975L15.546 13.8066L17.9063 13L15.546 12.1943C14.7208 11.9128 13.9671 11.4542 13.337 10.8516C12.7069 10.2489 12.2156 9.51594 11.8975 8.7041L11.8067 8.4541L11.0001 6.09375L10.1944 8.4541Z" fill="#00d4c0"/>
<path d="M19.0001 2C19.1871 2.00002 19.3706 2.05239 19.5294 2.15137C19.688 2.25032 19.8162 2.39169 19.8985 2.55957L19.9463 2.67676L20.296 3.70313L21.3233 4.05273C21.5106 4.11641 21.6747 4.2346 21.795 4.3916C21.9153 4.54866 21.9864 4.73814 21.9991 4.93555C22.0117 5.13313 21.9656 5.33071 21.8663 5.50195C21.7669 5.67308 21.6192 5.81139 21.4415 5.89844L21.3233 5.94629L20.2969 6.2959L19.9473 7.32324C19.8835 7.5106 19.7647 7.67466 19.6075 7.79492C19.4503 7.91507 19.261 7.98649 19.0635 7.99902C18.866 8.01152 18.6692 7.96465 18.4981 7.86523C18.327 7.76581 18.1886 7.6182 18.1016 7.44043L18.0538 7.32324L17.7042 6.29688L16.6768 5.94727C16.4895 5.88361 16.3255 5.7654 16.2051 5.6084C16.0848 5.45133 16.0138 5.26188 16.001 5.06445C15.9884 4.86685 16.0345 4.6693 16.1338 4.49805C16.2332 4.32692 16.3809 4.1886 16.5587 4.10156L16.6768 4.05371L17.7032 3.7041L18.0528 2.67676C18.1202 2.47925 18.2482 2.3079 18.418 2.18652C18.5878 2.06518 18.7914 1.99987 19.0001 2Z" fill="#00d4c0"/>
</svg>
